# xmcd
#
# Track frame offsets:
#	150
#	10815
#	20000
#	34728
#	47275
#	56263
#	74515
#	83208
#	94873
#	101450
#	113143
#	124653
#	138718
#	147348
#
# Disc length: 2147 seconds
#
# Revision: 3
# Processed by: cddbd v1.5.2PL0 Copyright (c) Steve Scherf et al.
# Submitted via: EasyCDDAExtractor 16.0.6.1
#
DISCID=ba08610e
DTITLE=Fiddlin' Frenchie Burke - C-006 Cajun Country Vol.1
DYEAR=1993
DGENRE=Country
TTITLE0=Big Mamou
TTITLE1=Colinda
TTITLE2=The Fiddlin' Of Jaques Pierre Bordeaux
TTITLE3=Cotton Eyed Joe
TTITLE4=Sugar Foot Rag
TTITLE5=Diggy Liggy Lo
TTITLE6=Cajun Fiddle
TTITLE7=Devil's Dream
TTITLE8=Rollin' My Sweet Baby's Arms
TTITLE9=Devil's Daughter
TTITLE10=Rubber Dolly
TTITLE11=Let Go Get Drunk/Be Somebody
TTITLE12=Frenchie's Schottische
TTITLE13=Cajun Melodies
EXTD=YEAR: 1993
EXTT0=
EXTT1=
EXTT2=
EXTT3=
EXTT4=
EXTT5=
EXTT6=
EXTT7=
EXTT8=
EXTT9=
EXTT10=
EXTT11=
EXTT12=
EXTT13=
PLAYORDER=
